# xmcd CD database file
#
# Track frame offsets:
#	150
#	11371
#	23445
#	35966
#	45443
#	55785
#	65206
#	75540
#	87221
#	98584
#	112190
#	123414
#	134645
#	146389
#	156778
#	166306
#	177483
#	190617
#	200899
#	213650
#	225676
#	236478
#	246945
#	256785
#	266784
#	275670
#	285407
#	294366
#
# Disc length: 4081 seconds
#
# Revision: 0
# Processed by: cddbd v1.5.2PL0 Copyright (c) Steve Scherf et al.
# Submitted via: CDex 2.13
#
DISCID=980fef1c
DTITLE=Charlie Walker - Early Recordings - No Sorrow Tonight
DYEAR=2019
DGENRE=Country
TTITLE0=I'm Looking For Another You
TTITLE1=Stolen Kisses
TTITLE2=Flaming Jewels
TTITLE3=Two Red Lips
TTITLE4=By Rights You Belong To Me
TTITLE5=Out Of My Arms
TTITLE6=Flock Of Memories
TTITLE7=What You Savin' Your Lovin' For
TTITLE8=I've Never Been Out Of Texas But I've Seen Everything
TTITLE9=Stay Away From My Heart
TTITLE10=You Don't Need No Other Daddy But Me
TTITLE11=Tell Her Lies And Feed Her CAndy
TTITLE12=When You Know What You Have Lost
TTITLE13=It Takes That To Satify Me
TTITLE14=The Chocolate Song
TTITLE15=Hurry Back Home
TTITLE16=Only You, Only Me
TTITLE17=you Can't Get There From here
TTITLE18=Remembering
TTITLE19=Stepping Stones
TTITLE20=Stand Still
TTITLE21=Cheaters Never Win
TTITLE22=I'm Not Mixed Up Anymore
TTITLE23=Gentle Love
TTITLE24=No Sorrow Tonight
TTITLE25=Dancing Mexican Boy
TTITLE26=I'll Never Let It Show
TTITLE27=Take My Hand (I'll Understand)
EXTD=YEAR: 2019
EXTT0=
EXTT1=
EXTT2=
EXTT3=
EXTT4=
EXTT5=
EXTT6=
EXTT7=
EXTT8=
EXTT9=
EXTT10=
EXTT11=
EXTT12=
EXTT13=
EXTT14=
EXTT15=
EXTT16=
EXTT17=
EXTT18=
EXTT19=
EXTT20=
EXTT21=
EXTT22=
EXTT23=
EXTT24=
EXTT25=
EXTT26=
EXTT27=
PLAYORDER=
